<?xml version="1.0" encoding="utf-8"?>
<!-- Generator: Adobe Illustrator 16.0.0, SVG Export Plug-In . SVG Version: 6.00 Build 0)  -->
<!DOCTYPE svg PUBLIC "-//W3C//DTD SVG 1.1//EN" "http://www.w3.org/Graphics/SVG/1.1/DTD/svg11.dtd">
<svg version="1.1" id="Layer_1" xmlns="http://www.w3.org/2000/svg" xmlns:xlink="http://www.w3.org/1999/xlink" x="0px" y="0px"
	 width="793.701px" height="793.701px" viewBox="0 0 793.701 793.701" enable-background="new 0 0 793.701 793.701"
	 xml:space="preserve">
<g>
	<g>
		<g>
			<path fill="#5F6F2C" d="M749.042,304.94c5.775-0.226,18.255-1.678,18.491-3.945c0.233-2.264-5.656-30.391-11.679-62.058
				c-6.023-31.666-15.142-102.616-15.252-105.513c-0.106-2.895-1.241-3.174-7.672-3.244c-6.428-0.07-12.867,1.009-15.409,1.751
				c-1.91,0.559-4.44,1.576-3.331,5.4c1.109,3.823,9.51,41.959,16.626,85.505c7.119,43.547,10.268,75.644,10.413,79.508
				C741.377,306.207,743.268,305.167,749.042,304.94z M768.842,464.288c8.395-0.136,19.428-2.328,20.268-4.097
				c0.824-1.737,0.01-3.781-3.167-21.299c-3.179-17.515-11.811-83.484-14.771-107.623c-2.958-24.139-1.867-28.432-2.654-28.56
				c-0.793-0.125-3.53,2.186-14.005,3.539c-5.483,0.709-10.99,0.114-12.384,0.642c-1.394,0.526-0.424,1.277,1.017,6.105
				c1.44,4.826,5.713,30.486,8.71,51.475c2.994,20.986,10.053,90.954,10.19,94.57C762.184,462.66,761.617,464.405,768.842,464.288z
				 M726.203,128.398c8.229-0.873,12.003,1.469,13.854,0.642c1.846-0.826-7.735-27.649-17.119-76.674
				c-9.382-49.023-8.528-52.367-8.528-52.367h-27.499c0,0,9.164,21.593,15.172,60.946c6.008,39.354,11.388,67.638,11.096,69.91
				C712.892,133.13,718.562,129.209,726.203,128.398z M790.676,467.828c0.15-2.893-1.292-5.679-7.403-3.835
				c-6.158,1.857-11.854,1.734-15.64,1.712c-1.988-0.012-5.755,1.219-4.992,5.127c0.363,1.857,6.619,38.096,9.968,84.189
				c3.201,44.014,3.471,76.268,3.271,80.13c-0.197,3.858,1.777,2.993,7.549,3.286c2.617,0.134,6.628,0.138,10.273-0.104v-97.999
				C791.805,507.566,790.567,469.928,790.676,467.828z M776.369,639.758c-1.435,0.398-0.534,1.235,0.469,6.173
				c1.002,4.936,2.968,30.88,4.076,52.053c1.072,20.47,1.839,86.875,1.721,94.531l11.066,0.479V639.876
				c-1.429,0.155-3.058,0.282-4.94,0.354C783.235,640.444,777.804,639.357,776.369,639.758z"/>
			<g>
				<path fill="#2B370E" d="M676.672-0.001c0,0,11.303,53.868,16.654,90.255c5.354,36.386,11.04,62.783,11.04,71.345
					c0,8.562-0.671,7.848,1.337,8.562c2.008,0.713,17.062-0.714,25.09-2.497c8.029-1.784,9.701-3.924,8.696-4.281
					c-1.002-0.356-9.182-23.87-13.715-48.515c-13.714-74.556-15.16-114.868-15.16-114.868H676.672z"/>
				<path fill="#2B370E" d="M706.375,171.586c0,0-2.009-0.356-1.34,1.784c0.668,2.141,6.02,24.257,13.045,71.345
					c7.025,47.088,13.714,101.668,14.049,107.73c0.336,6.066-0.668,9.989,1.674,11.773c2.341,1.785,21.075-0.355,27.766-2.498
					c6.689-2.139,10.037-5.705,10.037-5.705s1.488-2.144-1.933-10.703c-3.42-8.562-12.825-51.218-19.848-96.879
					c-7.025-45.66-8.661-80.414-9.668-81.127c-1.003-0.713-7.023,1.07-15.72,3.211C715.739,172.658,706.375,171.586,706.375,171.586
					z"/>
				<path fill="#2B370E" d="M793.701,523.857c-4.589,1.883-12.169,4.875-19.757,5.522c-8.361,0.714-11.037-0.712-11.037-0.712
					s-2.008-0.002-1.005,2.496c1.005,2.498,4.837,14.271,7.771,30.323c2.936,16.052,24.028,191.22,24.028,191.22V523.857z"/>
				<path fill="#2B370E" d="M793.701,507.04c-1.859-7.431-4.447-19.974-8.717-44.006c-6.021-33.893-12.376-94.177-11.373-98.101
					c1.005-3.924-1.003-6.063-2.008-5.351c-1.004,0.714-10.035,4.636-20.071,6.064c-10.036,1.426-18.064,0.712-18.064,0.712
					s3.559,8.205,6.356,17.479c6.021,19.979,17.062,98.457,19.068,114.866c2.008,16.41,3.01,23.187,2.008,27.11
					c-1.004,3.925,17.729,0.356,25.424-1.428c3.195-0.741,5.687-1.61,7.377-2.801V507.04z"/>
			</g>
			<g>
				<g>
					<path fill="#2B370E" d="M719.786,467.007c0,0-1.788-0.321-1.192,1.608c0.595,1.932,5.361,21.878,11.62,64.347
						c6.258,42.469,12.216,91.693,12.515,97.161c0.298,5.471-0.595,9.01,1.49,10.619c2.085,1.608,18.773-0.322,24.733-2.254
						c5.957-1.93,8.939-5.146,8.939-5.146s1.326-1.934-1.721-9.653c-3.046-7.721-11.425-46.192-17.681-87.375
						c-6.258-41.18-7.715-72.524-8.611-73.168c-0.893-0.644-6.257,0.966-14.003,2.896
						C728.127,467.973,719.786,467.007,719.786,467.007z"/>
					<path fill="#2B370E" d="M793.701,751.54c-1.657-6.701-2.155-12.218-5.96-33.894c-5.363-30.566-8.955-72.722-8.062-76.261
						c0.896-3.538-0.893-5.469-1.789-4.825c-0.893,0.644-8.938,4.182-17.878,5.469c-8.939,1.286-16.091,0.643-16.091,0.643
						s3.17,7.4,5.661,15.766c5.364,18.019,15.199,88.798,16.986,103.597c1.788,14.801,2.625,31.666,2.428,31.666
						c-8.091,0,16.969,0,24.705,0V751.54z"/>
				</g>
				<path fill="#2B370E" d="M624.847-0.001c0,0,10.012,34.707,18.277,74.035c8.266,39.33,8.783,46.023,9.816,51.881
					c1.034,5.856,1.034,5.856,1.034,5.856s7.233,1.395,16.534-0.836c9.3-2.231,11.883-4.184,11.883-4.184s0.516-1.116-1.548-6.416
					c-2.068-5.3-11.11-37.376-19.378-78.657c-8.266-41.282-8.219-41.68-8.219-41.68H624.847z"/>
				<path fill="#2B370E" d="M669.732,133.447c0,0-4.391,0.558-9.299,0.558c-4.91,0-6.718-1.116-5.685,1.674
					c1.033,2.788,6.459,22.035,12.399,52.996c5.943,30.961,16.018,85.91,17.826,99.019c1.808,13.11,2.067,15.621,2.324,18.689
					c0.26,3.07,3.876,2.511,11.886,0.837c8.008-1.675,14.207-3.626,16.274-6.137c2.066-2.511-0.775-2.232-3.359-13.11
					c-1.525-6.423-16.532-80.331-20.15-97.067c-3.615-16.735-9.042-55.506-8.784-58.576c0.26-3.067,1.291-4.184-3.876-1.953
					C674.123,132.61,669.732,133.447,669.732,133.447z"/>
				<path fill="#2B370E" d="M687.818,309.729c0,0,5.422,0.279,13.689-1.395s14.21-4.184,15.499-4.463
					c1.294-0.279,0.261,5.3,2.328,18.967c2.065,13.668,11.542,57.31,16.968,81.576c5.424,24.268,9.639,47.012,10.931,51.194
					c1.292,4.186-1.809,6.694-5.939,8.09c-4.136,1.395-17.826,3.067-21.185,1.952c-3.357-1.116-2.397-5.729-3.209-13.515
					c-1.322-12.697-8.818-47.722-14.992-85.811c-5.838-36.018-14.35-51.577-14.866-53.25
					C686.526,311.401,687.818,309.729,687.818,309.729z"/>
			</g>
			<path fill="#435607" d="M662.744,308.044c5.761-0.475,18.164-2.467,18.3-4.742c0.135-2.271-6.985-30.117-14.394-61.493
				c-7.408-31.375-19.633-101.863-19.87-104.752c-0.234-2.888-1.381-3.117-7.808-2.909c-6.426,0.208-12.81,1.565-15.318,2.417
				c-1.883,0.642-4.365,1.767-3.089,5.539c1.275,3.771,11.342,41.507,20.364,84.704c9.024,43.197,13.579,75.128,13.896,78.982
				C655.142,309.642,656.984,308.521,662.744,308.044z M646.042,132.701c1.808-0.905-8.942-27.289-20.47-75.86
				C614.046,8.271,612.13-0.001,612.13-0.001h-25.435c0,0,11.571,27.34,19.304,66.396c7.73,39.057,13.462,67.001,13.27,69.284
				c-0.188,2.285,5.306-1.878,12.903-3.019C640.356,131.431,644.229,133.607,646.042,132.701z M742.515,775.269
				c-2.378-17.645-8.001-83.948-9.861-108.201c-1.856-24.252-0.573-28.489-1.352-28.655c-0.787-0.161-3.626,2.021-14.15,2.884
				c-5.512,0.453-10.985-0.397-12.401,0.064c-1.416,0.46-0.479,1.257,0.74,6.146c1.218,4.888,4.32,30.722,6.357,51.827
				c1.971,20.403,5.653,86.713,5.872,94.366h27.395C744.879,791.07,743.968,786.056,742.515,775.269z M711.744,639.735
				c5.78,0.044,18.312-0.827,18.65-3.079s-4.268-30.623-8.845-62.54c-4.576-31.915-10.079-102.242-10.058-105.142
				c0.023-2.896-1.54-5.617-7.564-3.511c-6.071,2.122-11.767,2.246-15.55,2.388c-1.986,0.074-5.697,1.467-4.763,5.338
				c0.445,1.84,8.286,37.773,13.657,83.678c5.131,43.833,6.816,76.045,6.786,79.912C704.03,640.643,705.967,639.692,711.744,639.735
				z M689.524,466.384c8.38-0.499,19.306-3.168,20.066-4.971c0.747-1.771-0.154-3.778-4.1-21.142
				c-3.944-17.36-15.464-82.894-19.482-106.881c-4.015-23.988-3.113-28.324-3.906-28.418c-0.798-0.091-3.43,2.336-13.835,4.142
				c-5.448,0.946-10.977,0.59-12.346,1.177c-1.368,0.585-0.365,1.294,1.285,6.055c1.65,4.759,7.048,30.21,10.962,51.049
				c3.913,20.836,14.038,90.433,14.334,94.039C682.801,465.045,682.311,466.813,689.524,466.384z"/>
			<g>
				<g>
					<path fill="#435607" d="M718.073-0.001c0,0,6.873,24.89,9.336,63.104c2.461,38.214,6.725,64.798,6.251,66.951
						c-0.473,2.154,5.35-1.118,12.809-1.24c8.036-0.133,11.487,2.435,13.346,1.8c1.859-0.633-5.127-27.149-10.032-74.915
						c-4.903-47.766-4.841-55.699-4.841-55.699H718.073z"/>
					<path fill="#435607" d="M734.086,136.343c0.748,3.758,5.63,41.01,8.808,83.336c3.18,42.325,3.492,73.345,3.304,77.057
						c-0.188,3.711,1.73,2.876,7.337,3.155c5.607,0.277,17.803-0.048,18.223-2.196c0.422-2.15-2.884-29.599-6.015-60.45
						c-3.131-30.851-5.91-99.6-5.77-102.383c0.138-2.784-0.933-3.147-7.146-3.765c-6.214-0.618-12.534-0.136-15.058,0.359
						C735.874,131.828,733.34,132.585,734.086,136.343z"/>
					<path fill="#435607" d="M746.681,301.167c-1.392,0.385-0.518,1.186,0.465,5.934c0.983,4.746,2.933,29.695,4.045,50.058
						c1.111,20.36,1.981,87.992,1.807,91.47c-0.175,3.477-0.892,5.562,6.128,5.606c7.02,0.047,18.81-0.731,19.954-2.191
						c1.14-1.46,0.334-3.62-1.249-20.672c-1.587-17.053-4.32-80.986-5.129-104.364c-0.808-23.378,0.616-27.399-0.137-27.587
						c-0.755-0.188-3.602,1.792-13.849,2.192C753.35,301.823,748.073,300.78,746.681,301.167z"/>
				</g>
				<g>
					<path fill="#435607" d="M754.218,455.652c-1.404,0.349-0.551,1.172,0.302,5.944c0.854,4.771,2.122,29.763,2.678,50.148
						c0.557,20.383-0.416,88.014-0.687,91.485c-0.27,3.471-1.042,5.536,5.973,5.769c7.016,0.235,18.822-0.226,20.008-1.654
						c1.178-1.429,0.431-3.609-0.688-20.697c-1.119-17.09-2.109-81.073-2.281-104.464c-0.17-23.392,1.364-27.373,0.615-27.581
						c-0.749-0.209-3.647,1.694-13.901,1.818C760.866,456.488,755.619,455.305,754.218,455.652z"/>
					<path fill="#435607" d="M756.52,608.999c0,0-1.192-0.396-0.583,3.598c0.605,3.994,1.965,11.12,2.386,20.375
						c2.035,44.608,5.312,160.729,5.312,160.729h21.852c0,0-4.088-170.349-3.43-176.826c0.654-6.478,1.836-7.903,0.607-7.847
						c-1.228,0.059-9.258,1.161-15.083,1.274C758.087,610.484,756.52,608.999,756.52,608.999z"/>
				</g>
			</g>
			<g>
				<g>
					<path fill="#5F6F2C" d="M653.335-0.001c0,0,10.533,31.349,15.706,76.267c5.169,44.917,9.095,77.072,8.664,79.639
						c-0.43,2.566,6.242-1.63,15.029-2.211c9.469-0.625,13.69,2.198,15.844,1.342c2.155-0.856-7.656-31.714-16.274-87.753
						C683.687,11.244,682.02-0.001,682.02-0.001H653.335z"/>
					<path fill="#5F6F2C" d="M678.582,163.297c1.105,4.387,9.069,48.029,15.328,97.753c6.262,49.722,8.473,86.283,8.473,90.671
						c0,4.387,2.211,3.292,8.837,3.292c6.627,0,20.99-1.097,21.358-3.656c0.367-2.56-5.156-34.734-10.681-70.93
						c-5.522-36.195-12.881-117.1-12.881-120.391c0-3.291-1.283-3.656-8.648-4.021c-7.365-0.365-14.791,0.573-17.735,1.304
						C680.42,157.867,677.478,158.909,678.582,163.297z"/>
					<path fill="#5F6F2C" d="M703.214,356.917c-1.619,0.536-0.541,1.429,0.899,6.968c1.44,5.541,5.218,34.848,7.74,58.793
						c2.521,23.943,7.558,103.645,7.558,107.755c0,4.109-0.719,6.61,7.561,6.253c8.279-0.355,22.138-1.965,23.396-3.752
						c1.263-1.788,0.181-4.289-2.698-24.303c-2.881-20.017-9.899-95.246-12.239-122.766c-2.339-27.52-0.9-32.343-1.801-32.523
						c-0.899-0.178-4.138,2.324-16.198,3.396C711.117,357.299,704.833,356.38,703.214,356.917z"/>
				</g>
				<g>
					<path fill="#5F6F2C" d="M719.505,537.998c-1.708,0.502-0.614,1.472,0.687,7.296c1.303,5.828,4.188,36.511,5.957,61.562
						c1.767,25.049,4.155,108.311,4.008,112.595c-0.149,4.284-0.988,6.864,7.656,6.786c8.643-0.077,23.146-1.263,24.524-3.083
						c1.382-1.818,0.342-4.464-1.942-25.429c-2.282-20.968-6.896-99.638-8.346-128.409c-1.45-28.771,0.223-33.748-0.709-33.968
						c-0.932-0.218-4.398,2.277-17.006,2.968C727.729,538.678,721.212,537.496,719.505,537.998z"/>
					<path fill="#5F6F2C" d="M730.476,726.548c0,0-1.49-0.424-0.53,4.458c0.961,4.882,1.96,9.61,2.846,20.983
						c1.318,16.917,1.086,41.711,1.086,41.711h33.07c0,0-5.103-50.792-4.638-58.796c0.462-8.007,1.839-9.823,0.335-9.688
						c-1.511,0.133-11.333,1.913-18.492,2.354C732.482,728.294,730.476,726.548,730.476,726.548z"/>
				</g>
			</g>
			<path fill="#5F6F2C" d="M767.396,323.138c0,0-1.694,1.418-1.358,3.101c0.338,1.682,4.735,13.717,9.464,49.009
				c4.731,35.293,5.36,83.984,4.808,91.559c-0.555,7.577-2.872,9.189,0.743,10.747c1.935,0.835,7.319,1.328,12.649,1.492V322.817
				c-2.942,0.393-6.585,0.784-10.712,0.961C773.454,324.19,767.396,323.138,767.396,323.138z M778.04,481.808
				c0.337,1.682,2.275,10.397,5.167,42.174c3.166,34.783,2.918,34.602,1.419,112.785c-0.024,1.32-0.792,3.166-0.817,4.531
				c0,0,1.284,1.146,4.911,1.762c2.225,0.377,3.849,0.467,4.981,0.445v-162.7c-7.611-0.372-14.675-1.603-14.675-1.603
				S777.701,480.126,778.04,481.808z M783.668,645.222c0.49,2.877,1.995,22.337,1.331,52.99
				c-0.629,29.095-2.188,79.479-3.258,95.488h11.96V645.602c-1.07-0.185-2.199-0.397-3.353-0.64
				C784.916,643.82,783.176,642.344,783.668,645.222z M789.303,209.619c-1.634-16.595-2.104-54.616-1.367-57.526
				c0.736-2.908,2.059-3.83-4.074-2.436c-6.131,1.397-11.19,1.566-11.19,1.566s-5.018-0.1-10.539-0.811
				c-5.518-0.709-7.389-2.043-6.631,0.786c0.756,2.827,4.06,22.096,6.242,52.69s5.529,84.823,5.656,97.675
				c0.129,12.852,0.056,15.3-0.101,18.285c-0.155,2.985,3.991,2.971,13.24,2.523c5.171-0.251,9.69-0.675,13.162-1.363v-61.77
				C791.925,238.765,790.09,217.62,789.303,209.619z M773.907,148.922c10.78-0.798,13.968-2.299,13.968-2.299
				s0.744-0.997-0.809-6.386c-1.555-5.388-6.349-17.088-8.985-57.971c-0.998-15.454-1.946-82.267-1.946-82.267h-32.583
				c0,0,7.534,72.924,9.215,96.751c1.967,27.889,0.034,40.161,0.347,45.937c0.311,5.773,2.084,4.646,2.084,4.646
				S763.126,149.72,773.907,148.922z"/>
		</g>
	</g>
</g>
</svg>
