<?xml version="1.0" encoding="utf-8"?>
<!-- Generator: Adobe Illustrator 16.0.0, SVG Export Plug-In . SVG Version: 6.00 Build 0)  -->
<!DOCTYPE svg PUBLIC "-//W3C//DTD SVG 1.1//EN" "http://www.w3.org/Graphics/SVG/1.1/DTD/svg11.dtd">
<svg version="1.1" id="Layer_1" xmlns="http://www.w3.org/2000/svg" xmlns:xlink="http://www.w3.org/1999/xlink" x="0px" y="0px"
	 width="793.701px" height="793.701px" viewBox="0 0 793.701 793.701" enable-background="new 0 0 793.701 793.701"
	 xml:space="preserve">
<g>
	<g>
		<g>
			<g>
				<path fill="#346715" d="M343.474,34.588c0,0-3.295,5.84-7.294,7.942s-14.587,16.819-20.703,32.704
					c-6.118,15.884-12.705,39.478-12.705,39.478s26.351-41.347,31.996-54.194c5.647-12.847,7.765-22.425,7.765-22.425
					L343.474,34.588z"/>
				<path fill="#346715" d="M333.157,15.11c0,0-0.707,0.934,0.705,3.504c1.411,2.57-4.234,14.717-9.411,27.798
					c-5.177,13.082-9.881,27.565-16.704,38.31c-6.822,10.745-13.646,28.732-13.646,28.732s5.646-45.784,15.528-66.107
					c9.882-20.323,17.176-30.134,18.587-30.601c1.412-0.467,2.589,0,3.528-1.869c0.941-1.869,0.941-1.869,0.941-1.869L333.157,15.11
					z"/>
				<path fill="#346715" d="M323.882,1.921c0,0-1.033,0.558-0.826,3.478c0.208,2.919-10.015,11.635-20.201,21.395
					c-10.186,9.759-20.53,20.989-31.236,27.943s-24.444,20.496-24.444,20.496s24.311-39.307,41.81-53.709
					C306.482,7.121,317.226,1.21,318.704,1.369c1.479,0.158,1.648,0.515,3.286-0.796c1.64-1.311,1.372-0.164,1.372-0.164
					L323.882,1.921z"/>
			</g>
			<path fill="#5F6F2C" d="M149.043,302.346c0.146-3.864,3.294-35.961,10.413-79.508c7.116-43.546,15.517-81.682,16.626-85.505
				c1.109-3.824-1.421-4.841-3.331-5.4c-2.542-0.743-8.981-1.822-15.409-1.751c-6.431,0.07-7.565,0.349-7.672,3.244
				c-0.11,2.897-9.229,73.847-15.252,105.513c-6.022,31.667-11.912,59.794-11.679,62.058c0.236,2.267,12.716,3.719,18.491,3.945
				C147.005,305.167,148.896,306.207,149.043,302.346z M128.227,459.04c0.138-3.616,7.196-73.584,10.19-94.57
				c2.997-20.988,7.27-46.649,8.71-51.475c1.44-4.828,2.41-5.58,1.017-6.105c-1.394-0.527-6.9,0.067-12.384-0.642
				c-10.475-1.353-13.212-3.664-14.005-3.539c-0.787,0.128,0.304,4.421-2.654,28.56c-2.96,24.139-11.592,90.108-14.771,107.623
				c-3.177,17.518-3.991,19.562-3.167,21.299c0.84,1.769,11.873,3.961,20.268,4.097C128.655,464.405,128.089,462.66,128.227,459.04z
				 M177.094,130.855c-0.292-2.272,5.088-30.556,11.096-69.91c6.008-39.354,15.172-60.946,15.172-60.946h-27.499
				c0,0,0.854,3.344-8.528,52.367c-9.384,49.024-18.965,75.848-17.119,76.674c1.852,0.827,5.625-1.515,13.854-0.642
				C171.711,129.209,177.381,133.13,177.094,130.855z M96.571,540.334v97.999c3.646,0.242,7.656,0.238,10.273,0.104
				c5.771-0.293,7.746,0.572,7.549-3.286c-0.2-3.862,0.069-36.116,3.271-80.13c3.349-46.094,9.604-82.332,9.968-84.189
				c0.763-3.908-3.004-5.139-4.992-5.127c-3.785,0.022-9.481,0.146-15.64-1.712c-6.111-1.844-7.554,0.942-7.403,3.835
				C99.705,469.928,98.468,507.566,96.571,540.334z M101.512,640.23c-1.883-0.072-3.512-0.199-5.94-0.354v153.118l12.066-0.479
				c-0.118-7.656-0.352-74.062,0.721-94.531c1.108-21.173,4.074-47.117,5.076-52.053c1.003-4.938,1.903-5.774,0.469-6.173
				C112.469,639.357,107.037,640.444,101.512,640.23z"/>
			<g>
				<path fill="#2B370E" d="M213.601-0.001c0,0-11.303,53.868-16.654,90.255c-5.354,36.386-11.04,62.783-11.04,71.345
					c0,8.562,0.671,7.848-1.337,8.562c-2.008,0.713-17.062-0.714-25.09-2.497c-8.029-1.784-9.701-3.924-8.696-4.281
					c1.002-0.356,9.182-23.87,13.715-48.515c13.714-74.556,15.16-114.868,15.16-114.868H213.601z"/>
				<path fill="#2B370E" d="M183.897,171.586c0,0,2.009-0.356,1.34,1.784c-0.668,2.141-6.02,24.257-13.045,71.345
					c-7.025,47.088-13.714,101.668-14.049,107.73c-0.336,6.066,0.668,9.989-1.674,11.773c-2.341,1.785-21.075-0.355-27.766-2.498
					c-6.689-2.139-10.037-5.705-10.037-5.705s-1.488-2.144,1.933-10.703c3.42-8.562,12.825-51.218,19.848-96.879
					c7.025-45.66,8.661-80.414,9.668-81.127c1.003-0.713,7.023,1.07,15.72,3.211C174.533,172.658,183.897,171.586,183.897,171.586z"
					/>
				<path fill="#2B370E" d="M96.571,523.857c4.589,1.883,12.169,4.875,19.757,5.522c8.361,0.714,11.037-0.712,11.037-0.712
					s2.008-0.002,1.005,2.496c-1.005,2.498-4.837,14.271-7.771,30.323c-2.936,16.052-25.028,191.22-25.028,191.22L96.571,523.857z"
					/>
				<path fill="#2B370E" d="M96.571,507.04c1.859-7.431,4.447-19.974,8.717-44.006c6.021-33.893,12.376-94.177,11.373-98.101
					c-1.005-3.924,1.003-6.063,2.008-5.351c1.004,0.714,10.035,4.636,20.071,6.064c10.036,1.426,18.064,0.712,18.064,0.712
					s-3.559,8.205-6.356,17.479c-6.021,19.979-17.062,98.457-19.068,114.866c-2.008,16.41-3.01,23.187-2.008,27.11
					c1.004,3.925-17.729,0.356-25.424-1.428c-3.195-0.741-5.687-1.61-7.377-2.801V507.04z"/>
			</g>
			<g>
				<g>
					<path fill="#2B370E" d="M170.486,467.007c0,0,1.788-0.321,1.192,1.608c-0.595,1.932-5.361,21.878-11.62,64.347
						c-6.258,42.469-12.216,91.693-12.515,97.161c-0.298,5.471,0.595,9.01-1.49,10.619c-2.085,1.608-18.773-0.322-24.733-2.254
						c-5.957-1.93-8.939-5.146-8.939-5.146s-1.326-1.934,1.721-9.653c3.046-7.721,11.425-46.192,17.681-87.375
						c6.258-41.18,7.715-72.524,8.611-73.168c0.893-0.644,6.257,0.966,14.003,2.896
						C162.146,467.973,170.486,467.007,170.486,467.007z"/>
					<path fill="#2B370E" d="M95.571,751.54c1.657-6.701,2.155-12.218,5.96-33.894c5.363-30.566,9.955-72.722,9.062-76.261
						c-0.896-3.538,0.893-5.469,1.789-4.825c0.893,0.644,8.938,4.182,17.878,5.469c8.939,1.286,16.091,0.643,16.091,0.643
						s-3.17,7.4-5.661,15.766c-5.364,18.019-16.199,88.798-17.986,103.597c-1.788,14.801-1.625,31.666-1.428,31.666
						c8.091,0-16.969,0-24.705,0L95.571,751.54z"/>
				</g>
				<path fill="#2B370E" d="M265.426-0.001c0,0-10.012,34.707-18.277,74.035c-8.266,39.33-8.783,46.023-9.816,51.881
					c-1.034,5.856-1.034,5.856-1.034,5.856s-7.233,1.395-16.534-0.836c-9.3-2.231-11.883-4.184-11.883-4.184
					s-0.516-1.116,1.548-6.416c2.068-5.3,11.11-37.376,19.378-78.657c8.266-41.282,8.219-41.68,8.219-41.68H265.426z"/>
				<path fill="#2B370E" d="M220.54,133.447c0,0,4.391,0.558,9.299,0.558c4.91,0,6.718-1.116,5.685,1.674
					c-1.033,2.788-6.459,22.035-12.399,52.996c-5.943,30.961-16.018,85.91-17.826,99.019c-1.808,13.11-2.067,15.621-2.324,18.689
					c-0.26,3.07-3.876,2.511-11.886,0.837c-8.008-1.675-14.207-3.626-16.274-6.137c-2.066-2.511,0.775-2.232,3.359-13.11
					c1.525-6.423,16.532-80.331,20.15-97.067c3.615-16.735,9.042-55.506,8.784-58.576c-0.26-3.067-1.291-4.184,3.876-1.953
					C216.149,132.61,220.54,133.447,220.54,133.447z"/>
				<path fill="#2B370E" d="M202.454,309.729c0,0-5.422,0.279-13.689-1.395s-14.21-4.184-15.499-4.463
					c-1.294-0.279-0.261,5.3-2.328,18.967c-2.065,13.668-11.542,57.31-16.968,81.576c-5.424,24.268-9.639,47.012-10.931,51.194
					c-1.292,4.186,1.809,6.694,5.939,8.09c4.136,1.395,17.826,3.067,21.185,1.952c3.357-1.116,2.397-5.729,3.209-13.515
					c1.322-12.697,8.818-47.722,14.992-85.811c5.838-36.018,14.35-51.577,14.866-53.25
					C203.746,311.401,202.454,309.729,202.454,309.729z"/>
			</g>
			<path fill="#435607" d="M235.447,305.791c0.316-3.854,4.871-35.785,13.896-78.982c9.022-43.197,19.089-80.933,20.364-84.704
				c1.276-3.772-1.206-4.897-3.089-5.539c-2.509-0.852-8.893-2.209-15.318-2.417c-6.427-0.208-7.573,0.021-7.808,2.909
				c-0.237,2.889-12.462,73.376-19.87,104.752c-7.408,31.376-14.528,59.222-14.394,61.493c0.136,2.275,12.539,4.267,18.3,4.742
				C233.288,308.521,235.131,309.642,235.447,305.791z M258.101,132.659c7.598,1.141,13.092,5.304,12.903,3.019
				c-0.192-2.283,5.539-30.227,13.27-69.284c7.732-39.056,19.304-66.396,19.304-66.396h-25.435c0,0-1.916,8.271-13.442,56.842
				c-11.527,48.571-22.277,74.955-20.47,75.86C246.044,133.607,249.916,131.431,258.101,132.659z M145.158,793.7h27.395
				c0.219-7.653,2.901-73.963,4.872-94.366c2.037-21.105,6.14-46.939,7.357-51.827c1.22-4.89,2.156-5.687,0.74-6.146
				c-1.416-0.462-6.89,0.389-12.401-0.064c-10.524-0.863-13.363-3.045-14.15-2.884c-0.778,0.166-0.495,4.403-2.352,28.655
				c-1.86,24.253-6.483,90.557-8.861,108.201C146.305,786.056,145.394,791.07,145.158,793.7z M186.214,636.779
				c-0.03-3.867,1.655-36.079,6.786-79.912c5.371-45.904,13.212-81.838,13.657-83.678c0.935-3.871-2.776-5.264-4.763-5.338
				c-3.783-0.142-9.479-0.266-15.55-2.388c-6.024-2.106-7.588,0.614-7.564,3.511c0.021,2.899-5.481,73.227-10.058,105.142
				c-4.577,31.917-9.183,60.288-8.845,62.54s12.87,3.123,18.65,3.079C184.306,639.692,186.242,640.643,186.214,636.779z
				 M207.77,461.435c0.296-3.606,10.421-73.203,14.334-94.039c3.914-20.839,9.312-46.29,10.962-51.049
				c1.65-4.761,2.653-5.47,1.285-6.055c-1.369-0.587-6.897-0.231-12.346-1.177c-10.405-1.805-13.037-4.233-13.835-4.142
				c-0.793,0.094,0.108,4.43-3.906,28.418c-4.019,23.987-15.538,89.521-19.482,106.881c-3.945,17.363-4.847,19.37-4.1,21.142
				c0.761,1.803,11.687,4.472,20.066,4.971C207.962,466.813,207.472,465.045,207.77,461.435z"/>
			<g>
				<g>
					<path fill="#435607" d="M172.199-0.001c0,0-6.873,24.89-9.336,63.104c-2.461,38.214-6.725,64.798-6.251,66.951
						c0.473,2.154-5.35-1.118-12.809-1.24c-8.036-0.133-11.487,2.435-13.346,1.8c-1.859-0.633,5.127-27.149,10.032-74.915
						c4.903-47.766,4.841-55.699,4.841-55.699H172.199z"/>
					<path fill="#435607" d="M156.187,136.343c-0.748,3.758-5.63,41.01-8.808,83.336c-3.18,42.325-3.492,73.345-3.304,77.057
						c0.188,3.711-1.73,2.876-7.337,3.155c-5.607,0.277-17.803-0.048-18.223-2.196c-0.422-2.15,2.884-29.599,6.015-60.45
						c3.131-30.851,5.91-99.6,5.77-102.383c-0.138-2.784,0.933-3.147,7.146-3.765c6.214-0.618,12.534-0.136,15.058,0.359
						C154.398,131.828,156.933,132.585,156.187,136.343z"/>
					<path fill="#435607" d="M143.592,301.167c1.392,0.385,0.518,1.186-0.465,5.934c-0.983,4.746-2.933,29.695-4.045,50.058
						c-1.111,20.36-1.981,87.992-1.807,91.47c0.175,3.477,0.892,5.562-6.128,5.606c-7.02,0.047-18.81-0.731-19.954-2.191
						c-1.14-1.46-0.334-3.62,1.249-20.672c1.587-17.053,4.32-80.986,5.129-104.364c0.808-23.378-0.616-27.399,0.137-27.587
						c0.755-0.188,3.602,1.792,13.849,2.192C136.923,301.823,142.199,300.78,143.592,301.167z"/>
				</g>
				<g>
					<path fill="#435607" d="M136.055,455.652c1.404,0.349,0.551,1.172-0.302,5.944c-0.854,4.771-2.122,29.763-2.678,50.148
						c-0.557,20.383,0.416,88.014,0.687,91.485c0.27,3.471,1.042,5.536-5.973,5.769c-7.016,0.235-18.822-0.226-20.008-1.654
						c-1.178-1.429-0.431-3.609,0.688-20.697c1.119-17.09,2.109-81.073,2.281-104.464c0.17-23.392-1.364-27.373-0.615-27.581
						c0.749-0.209,3.647,1.694,13.901,1.818C129.406,456.488,134.653,455.305,136.055,455.652z"/>
					<path fill="#435607" d="M133.753,608.999c0,0,1.192-0.396,0.583,3.598c-0.605,3.994-1.965,11.12-2.386,20.375
						c-2.038,44.665-2.036,44.632-5.312,160.729h-21.852c4.087-170.327,4.085-170.373,3.43-176.826
						c-0.654-6.478-1.836-7.903-0.607-7.847c1.228,0.059,9.258,1.161,15.083,1.274C132.186,610.484,133.753,608.999,133.753,608.999
						z"/>
				</g>
			</g>
			<g>
				<g>
					<path fill="#5F6F2C" d="M236.938-0.001c0,0-10.533,31.349-15.706,76.267c-5.169,44.917-9.095,77.072-8.664,79.639
						c0.43,2.566-6.242-1.63-15.029-2.211c-9.469-0.625-13.69,2.198-15.844,1.342c-2.155-0.856,7.656-31.714,16.274-87.753
						c8.617-56.039,10.284-67.283,10.284-67.283H236.938z"/>
					<path fill="#5F6F2C" d="M211.69,163.297c-1.105,4.387-9.069,48.029-15.328,97.753c-6.262,49.722-8.473,86.283-8.473,90.671
						c0,4.387-2.211,3.292-8.837,3.292c-6.627,0-20.99-1.097-21.358-3.656c-0.367-2.56,5.156-34.734,10.681-70.93
						c5.522-36.195,12.881-117.1,12.881-120.391c0-3.291,1.283-3.656,8.648-4.021c7.365-0.365,14.791,0.573,17.735,1.304
						C209.853,157.867,212.795,158.909,211.69,163.297z"/>
					<path fill="#5F6F2C" d="M187.059,356.917c1.619,0.536,0.541,1.429-0.899,6.968c-1.44,5.541-5.218,34.848-7.74,58.793
						c-2.521,23.943-7.558,103.645-7.558,107.755c0,4.109,0.719,6.61-7.561,6.253c-8.279-0.355-22.138-1.965-23.396-3.752
						c-1.263-1.788-0.181-4.289,2.698-24.303c2.881-20.017,9.899-95.246,12.239-122.766c2.339-27.52,0.9-32.343,1.801-32.523
						c0.899-0.178,4.138,2.324,16.198,3.396C179.155,357.299,185.439,356.38,187.059,356.917z"/>
				</g>
				<g>
					<path fill="#5F6F2C" d="M170.768,537.998c1.708,0.502,0.614,1.472-0.687,7.296c-1.303,5.828-4.188,36.511-5.957,61.562
						c-1.767,25.049-5.155,108.311-5.008,112.595c0.149,4.284,0.988,6.864-7.656,6.786c-8.643-0.077-23.146-1.263-24.524-3.083
						c-1.382-1.818-0.342-4.464,1.942-25.429c2.282-20.968,7.896-99.638,9.346-128.409c1.45-28.771-0.223-33.748,0.709-33.968
						c0.932-0.218,4.398,2.277,17.006,2.968C162.544,538.678,169.061,537.496,170.768,537.998z"/>
					<path fill="#5F6F2C" d="M158.797,726.548c0,0,1.49-0.424,0.53,4.458c-0.961,4.882-1.96,9.61-2.846,20.983
						c-1.318,16.917-0.086,41.711-0.086,41.711h-33.07c0,0,4.103-50.792,3.638-58.796c-0.462-8.007-1.839-9.823-0.335-9.688
						c1.511,0.133,11.333,1.913,18.492,2.354C156.79,728.294,158.797,726.548,158.797,726.548z"/>
				</g>
			</g>
			<g>
				<path fill="#435607" d="M235.885,299.375c-0.427,0.73-0.785,1.382-0.854,1.496c-0.101,0.157-1.032,2.463-1.609,3.898
					l-0.438-1.301c0.216-0.487,0.471-1.068,0.78-1.775c0.315-0.717,0.711-1.507,1.164-2.337c-0.048,0-0.098-0.001-0.145-0.001
					l0.214-0.131c2.097-3.821,5.334-8.473,7.245-11.119c2.353-3.252,7.59-6.123,11.995-8.007c4.403-1.885,17.096-7.219,21.79-9.567
					c4.692-2.347,6.949-3.203,6.949-3.203s-23.197,11.477-28.25,13.71c-5.054,2.234-10.489,5.943-11.734,7.42
					c-1.247,1.477-5.323,7.839-5.323,7.839s0.264,0.267-0.424,1.022c-0.205,0.226-0.476,0.622-0.754,1.063
					c9.911,0.522,25.121,4.159,31.721,6.361c2.07,0.69,5.179,2.942,8.62,5.884c2.383,0.586,5.392,1.342,6.919,1.795
					c2.755,0.82,6.149,1.886,6.149,1.886l0.324-0.459l1.742-0.588c0,0,5.38-2.391,8.771-3.701
					c3.394-1.311,10.637-5.602,10.637-5.602l0.147-0.015c0.535-0.753,1.208-2.169,1.208-2.169l3.194-10.026l8.488-22.333
					l1.022-0.339c-0.106,0.233-0.228,0.476-0.328,0.707c-4.322,9.83-9.487,24.602-10.32,27.037c-0.83,2.433-1.157,6.978-2.822,7.534
					c-1.665,0.555-11.188,6.109-14,6.821c-2.812,0.715-5.942,2.861-5.942,2.861l1.851-0.725c0,0,0.189,1.989-1.312,2.128
					s-2.485-0.119-6.614-1.589c-1.207-0.429-4.018-1.087-7.514-1.825c8.267,7.348,17.77,17.76,19.425,20.071
					c2.349,3.281,15.508,13.539,16.274,14.854l1.387,1.658c-1.917-2.092-15.633-12.614-18.043-15.979
					c-1.665-2.329-12.516-13.591-20.916-20.992c-8.336-1.71-19.349-3.694-22.691-4.27c-5.082-0.881-10.677-0.761-10.677-0.761
					s-0.233-0.328,0.191,0.434c0.428,0.761-0.147,1.618-3.366,1.217c-1.213-0.152-3.172-0.048-5.361,0.184l-0.354-1.054
					c3.75-0.143,6.977,0.05,6.977,0.05l-0.005-0.604l-0.907-0.468l0.118-0.918c0,0,0.115-0.917,0.89-0.737
					c0.781,0.18,0.115,0.644,0.956,0.968c0.844,0.324,4.443-0.212,13.785,0.981c9.343,1.194,17.286,3.139,17.286,3.139
					s0.563,0.135,1.432,0.344c-2.748-2.334-5.113-4.109-6.619-4.799C262.024,302.504,245.633,299.65,235.885,299.375z"/>
				<g>
					<g>
						<path fill="#469C23" d="M319.515,282.494c0,0-0.327,0.718,0.315,1.129c0.646,0.412,5.384-0.187,6.468-0.604
							c1.084-0.421,9.155-2.673,12.102-3.794c2.949-1.12,4.285-1.349,5.651-1.217c1.367,0.132,3.517,0.923,3.517,0.923
							s-2.518-1.647-6.47-1.407c-3.957,0.24-6.973-0.797-11.428-0.277c-4.456,0.519-8.544,2.336-9.235,3.307
							C319.744,281.529,319.515,282.494,319.515,282.494z"/>
						<path fill="#99CF81" d="M318.064,278.905c0,0,0.568,0.553,1.179,0.095s1.677-5.084,1.653-6.237
							c-0.022-1.157,0.627-9.455,0.583-12.586c-0.046-3.136,0.197-4.459,0.793-5.688c0.594-1.227,2.084-2.959,2.084-2.959
							s-2.424,1.78-3.558,5.547c-1.136,3.771-3.156,6.224-4.198,10.556c-2.057,8.529-3.644,4.573-0.052,9.749
							C317.23,278.359,318.064,278.905,318.064,278.905z"/>
					</g>
					<g>
						<path fill="#469C23" d="M284.81,329.89c-0.588,0.862-1.584,3.502-6.311,4.389c-6.154,1.155-17.959,4.242-20.864,4.67
							c-4.336,0.641-10.156,2.275-13.373,2.463c-3.218,0.191-4.82,0.207-4.82,0.207s8.21-5.333,12.737-7.424
							c4.526-2.092,14.646-4.612,19.733-5.659c5.09-1.046,8.348-1.978,10.511-1.173c2.156,0.803,3.342,1.729,3.342,1.729
							l-0.037,0.173C285.728,329.265,285.398,329.023,284.81,329.89z"/>
						<path fill="#469C23" d="M288.458,325.4c0,0-0.703-0.062-0.861,0.594c-0.16,0.654,1.724,4.417,2.394,5.194
							c0.668,0.777,4.918,6.825,6.722,8.948c1.804,2.123,2.384,3.165,2.67,4.339c0.288,1.174,0.247,3.188,0.247,3.188
							s0.653-2.57-0.7-5.783c-1.356-3.215-1.36-6.022-3.094-9.573c-1.735-3.55-4.457-6.414-5.478-6.707
							C289.337,325.311,288.458,325.4,288.458,325.4z"/>
						<path fill="#99CF81" d="M287.347,332.735c0,0,5.379,9.743,6.697,19.395c1.321,9.652,0.028,18.898-1.688,24.554
							c-1.717,5.654-2.106,6.325-2.106,6.325s2.741-5.463-0.026-19.114c-2.77-13.646-3.605-22.106-3.847-25.647
							c-0.244-3.538-0.146-6.627,0.315-6.458C287.156,331.958,287.347,332.735,287.347,332.735z"/>
						<path fill="#99CF81" d="M284.669,333.876c0,0-1.678,9.423-6.034,16.615c-4.354,7.189-10.242,12.708-14.468,15.59
							c-4.225,2.877-4.851,3.119-4.851,3.119s4.811-2.202,10.359-12.852c5.553-10.647,9.587-16.78,11.346-19.286
							c1.759-2.509,3.504-4.531,3.721-4.17C284.962,333.253,284.669,333.876,284.669,333.876z"/>
						<path fill="#469C23" d="M287.532,323.303c0,0-0.193,0.921-0.904,0.768c-2.415-0.528-8.233-1.995-10.614-2.76
							c-3.085-0.993-9.761-3.513-11.272-3.604c-1.508-0.09-9.475-2.281-9.475-2.281s18.781,0.332,21.81,1.178
							c3.03,0.848,9.022,4.906,9.022,4.906L287.532,323.303z"/>
					</g>
					<g>
						<path fill="#99CF81" d="M258.725,277.848c0,0-0.362,0.727,0.202,0.997c1.919,0.917,6.645,2.997,8.668,3.735
							c2.624,0.957,8.496,2.776,9.569,3.511c1.067,0.733,7.64,3.457,7.64,3.457s-12.902-9.691-15.407-10.717
							c-2.506-1.025-8.741-1.44-8.741-1.44L258.725,277.848z"/>
						<path fill="#469C23" d="M259.54,276.123c0,0,0.379,0.718,0.933,0.423c1.872-1.001,6.344-3.582,8.132-4.773
							c2.321-1.547,7.253-5.2,8.479-5.63c1.229-0.427,7.305-4.111,7.305-4.111s-15.473,4.68-17.78,6.09
							c-3.44,2.105-2.837,2.041-6.309,6.18L259.54,276.123z"/>
					</g>
				</g>
			</g>
			<g>
				<path fill="#469C23" d="M217.984,331.96c0,0,0.526,0.448,0.849,0.017c0.322-0.431-0.1-0.637,0.698-0.823
					c0.798-0.19,2.222-0.393,3.882,0.456c1.659,0.847,6.424,2.201,9.155,3.101c2.73,0.899,8.31,3.056,11.651,4.783
					c3.342,1.729,7.801,4.332,7.801,4.332s-4.76-0.843-10.149-2.037c-5.385-1.196-12.075-3.522-14.639-4.594
					c-2.562-1.071-4.35-1.461-5.833-1.8c-1.481-0.341-3.36-1.419-3.127-2.005c0.234-0.586,0.407-0.786,0.272-0.833
					c-0.137-0.05-0.723-0.111-0.723-0.111L217.984,331.96z"/>
				<path fill="#469C23" d="M221.854,328.994c0,0,0.212-0.356-0.11-0.452c-0.323-0.095-1.186-0.271-1.464-2.261
					c-0.279-1.991,0.538-3.903,0.79-7.535c0.254-3.631,1.595-9.517,2.285-13.179c0.693-3.66,1.143-6.531,1.143-6.531
					s-0.197,2.88,0.008,7.815c0.204,4.933,0.342,9.816,0.295,13.666c-0.048,3.853-0.136,5.806-0.746,6.712
					c-0.611,0.907-1.739,1.264-1.871,1.434C222.045,328.836,221.854,328.994,221.854,328.994z"/>
				<path fill="#469C23" d="M213.646,333.841c0,0,1.457-0.472,1.993-0.331c0.54,0.139,1.288,2.453,1.595,3.236
					c0.305,0.783,3.055,6.182,3.898,8.301c0.844,2.12,1.377,2.942,2.121,3.604c0.742,0.662,2.224,1.415,2.224,1.415
					s-2.124-0.529-3.937-2.749c-1.815-2.222-3.856-3.318-5.764-5.941c-1.911-2.625-2.937-5.694-2.753-6.538
					C213.21,333.991,213.646,333.841,213.646,333.841z"/>
				<path fill="#99CF81" d="M213.57,330.992L213.57,330.992c-0.009-0.005-5.163-2.319-6.03-3.206
					c-0.869-0.886-7.081-7.473-8.409-9.045c-1.323-1.57-4.277-5.801-4.41-6.175c-0.135-0.376,7.228,5.471,9.157,7.226
					c1.93,1.755,6.647,7.03,6.71,7.167c0.061,0.142,3.215,3.915,3.215,3.915L213.57,330.992z"/>
				<path fill="#469C23" d="M232.959,325.076L232.959,325.076c0.008-0.015,4.418-7.216,5.904-8.339
					c1.489-1.125,12.497-9.118,15.095-10.794s9.479-5.277,10.067-5.407c0.589-0.131-9.517,9.701-12.503,12.235
					c-2.983,2.537-11.754,8.557-11.972,8.624c-0.221,0.066-6.456,4.046-6.456,4.046L232.959,325.076z"/>
				<path fill="#7EBA65" d="M239.717,324.634c0,0,17.142-5.585,20.481-8.438c3.339-2.857,7.101-7.276,7.623-9.316
					c0.521-2.041,1.212-2.806,2.291-4.15c1.08-1.343,2.941-2.181,2.75-3.805c-0.005-0.042-0.147,2.392-1.212,4.943
					c-1.078,2.586-5.92,6.211-6.83,8.418c-0.91,2.208-4.197,5.65-7.557,8.172c-3.355,2.522-13.767,5.048-15.91,5.179
					c-2.144,0.129-8.979,0.352-8.979,0.352l0.557-0.545L239.717,324.634z"/>
				<path fill="#469C23" d="M216.671,330.09c0,0,1.086-0.083,1.61-0.882c0.525-0.802,0.615-3.719,0.589-9.231
					c-0.024-5.51-0.635-9.398-1.512-13.441c-0.875-4.046-1.855-10.385-1.855-10.385s-1.552,6.66-2.023,11.257
					c-0.476,4.596-0.17,17.594,0.118,19.215c0.291,1.62,1.192,2.457,1.841,2.808c0.646,0.353,0.826,0.682,0.826,0.682
					L216.671,330.09z"/>
				<path fill="#469C23" d="M227.692,326.026c0,0,1.447-7.544,2.313-10.578c0.866-3.037,6.177-11.695,8.391-14.197
					c2.212-2.5,5.048-5.042,5.048-5.042s-4.749,10.61-7.516,16.127c-2.766,5.516-5.167,10.885-5.381,11.457
					c-0.213,0.572-2.501,2.892-2.501,2.892l-0.551,0.159L227.692,326.026z"/>
				<path fill="#469C23" d="M225.915,329.02c0,0,8.394,2.997,11.937,3.921c3.546,0.928,15.323,0.764,19.123,0.047
					c3.799-0.717,8.004-2.025,8.004-2.025s-13.397-1.535-20.539-2.043c-7.141-0.502-13.921-1.284-14.617-1.408
					c-0.697-0.126-4.357,0.77-4.357,0.77l-0.485,0.451L225.915,329.02z"/>
				<path fill="#435607" d="M195.143,340.059c-2.663,2.175-6.913,7.601-10.32,12.772l-0.081-0.823
					c3.462-4.819,7.602-9.687,10.014-12.137c3.832-3.891,24.044-9.971,27.059-10.479c2.866-0.482,13.653-5.722,14.749-5.803
					l1.514-0.374c-1.948,0.571-13.092,6.092-16.036,6.587C219.163,330.287,198.929,336.968,195.143,340.059z"/>
			</g>
			<g>
				<path fill="#637231" d="M252.763,392.798c2.788,3.58,18.267,14.497,20.459,16.703l-1.592-1.752
					c-0.897-1.406-15.757-12.06-18.474-15.546c-2.854-3.668-25.63-26.319-33.663-28.646c-7.343-2.128-24.364-5.445-35.232-5.562
					v1.17c10.473-0.338,28.092,2.103,35.259,5.046C226.427,367.049,250.037,389.301,252.763,392.798z M273.404,409.699
					c-0.045-0.054-0.106-0.121-0.183-0.198L273.404,409.699z"/>
				<g>
					<path fill="#469C23" d="M249.763,388.979c0,0,1.094,7.869,4.99,16.458c1.404,3.104,7.06,14.541,11.198,21.145
						c4.138,6.604,12.537,17.89,12.537,17.89s-5.626-20.683-13.538-33.926c-6.919-11.576-10.236-18.605-11.617-19.569
						C250.457,388.969,249.763,388.979,249.763,388.979z"/>
					<path fill="#469C23" d="M248.325,389.573c0.484,0.965,2.367,3.194,0.771,7.866c-1.596,4.671-4.74,16.802-6.36,20.998
						c-1.621,4.197-3.096,10.223-4.56,13.194c-1.462,2.969-2.26,4.409-2.26,4.409s-0.661-10.04-0.259-15.144
						c0.404-5.104,3.259-15.42,4.896-20.493c1.636-5.075,2.446-8.458,4.272-9.979c1.823-1.521,3.263-2.11,3.263-2.11l0.136,0.123
						C248.225,388.439,247.841,388.61,248.325,389.573z"/>
					<path fill="#99CF81" d="M246.114,384.042c0,0-0.412,0.594,0.099,1.067c0.513,0.474,4.876,0.702,5.92,0.499
						c1.045-0.202,8.678-0.923,11.517-1.457c2.837-0.531,4.074-0.522,5.282-0.181c1.208,0.34,3.013,1.399,3.013,1.399
						s-1.991-1.889-5.594-2.312c-3.598-0.423-6.142-1.845-10.236-2.097c-4.094-0.254-8.072,0.723-8.853,1.485
						C246.478,383.208,246.114,384.042,246.114,384.042z"/>
					<path fill="#469C23" d="M252.189,388.753c0,0,11.555,0.146,20.964,3.869c9.41,3.721,17.129,9.568,21.379,13.974
						c4.25,4.406,4.658,5.093,4.658,5.093s-3.557-5.222-17.319-9.68s-21.852-8.008-25.18-9.587
						c-3.328-1.581-6.076-3.238-5.689-3.566C251.391,388.531,252.189,388.753,252.189,388.753z"/>
					<path fill="#99CF81" d="M262.595,398.733c0,0,10.952,4.084,18.624,10.841c7.673,6.758,12.995,14.963,15.516,20.607
						c2.521,5.646,2.675,6.439,2.675,6.439s-1.579-6.187-13.142-15.131c-11.562-8.943-18.034-15.087-20.656-17.727
						c-2.621-2.64-4.665-5.157-4.181-5.337C261.913,398.249,262.595,398.733,262.595,398.733z"/>
					<path fill="#99CF81" d="M244.354,385.971c0,0,0.736,0.64,0.233,1.196c-1.703,1.888-5.984,6.339-7.884,8.079
						c-2.468,2.249-8.14,6.931-8.987,8.235c-0.852,1.298-6.876,7.3-6.876,7.3s9.835-16.599,12.14-18.874
						c2.305-2.274,9.023-5.566,9.023-5.566L244.354,385.971z"/>
				</g>
			</g>
			<g>
				<g>
					<g>
						<path fill="#469C23" d="M234.093,171.695c0.588,0.453,2.419,1.278,2.828,4.64c0.531,4.376,2.171,12.811,2.34,14.87
							c0.251,3.076,1.139,7.24,1.12,9.507c-0.016,2.269-0.079,3.395-0.079,3.395s-3.412-6.018-4.685-9.294
							c-1.277-3.279-2.595-10.503-3.098-14.125c-0.506-3.623-1.014-5.956-0.339-7.435c0.674-1.478,1.389-2.266,1.389-2.266
							l0.124,0.034C233.693,171.02,233.504,171.242,234.093,171.695z"/>
						<path fill="#469C23" d="M229.61,165.565c0,0-0.114,0.719,0.562,0.928c0.673,0.21,4.744-1.473,5.606-2.11
							c0.859-0.636,7.487-4.6,9.836-6.314c2.348-1.714,3.478-2.239,4.729-2.455c1.248-0.215,3.354-0.033,3.354-0.033
							s-2.645-0.853-6.104,0.32c-3.461,1.175-6.4,0.984-10.238,2.529c-3.837,1.543-7.026,4.153-7.401,5.185
							C229.577,164.651,229.61,165.565,229.61,165.565z"/>
						<path fill="#99CF81" d="M235.305,167.333c0,0,8.641-3.981,16.972-4.545c8.332-0.565,16.168,1.051,20.907,2.82
							c4.738,1.767,5.29,2.135,5.29,2.135s-4.519-2.623-16.35-1.064c-11.83,1.558-19.112,1.781-22.156,1.787
							c-3.04,0.005-5.677-0.255-5.507-0.635C234.632,167.451,235.305,167.333,235.305,167.333z"/>
						<path fill="#99CF81" d="M237.976,170.03c0,0,7.426,1.819,12.932,5.624c5.501,3.805,9.592,8.726,11.664,12.202
							c2.073,3.472,2.233,3.977,2.233,3.977s-1.504-3.898-9.702-8.825c-8.197-4.929-12.874-8.426-14.778-9.941
							c-1.908-1.516-3.429-2.997-3.129-3.147C237.494,169.766,237.976,170.03,237.976,170.03z"/>
						<path fill="#469C23" d="M228.376,167.196c0,0,0.847,0.333,0.731,0.994c-0.391,2.232-1.508,7.586-2.116,9.748
							c-0.787,2.805-2.829,8.812-2.857,10.248c-0.024,1.433-1.721,8.735-1.721,8.735s-0.393-17.993,0.265-20.766
							c0.656-2.773,4.123-7.875,4.123-7.875L228.376,167.196z"/>
					</g>
					<g>
						<path fill="#99CF81" d="M253.933,147.477c0,0-0.736,0.577-0.284,1.134c1.539,1.891,5.425,6.36,7.165,8.114
							c2.252,2.276,7.461,7.033,8.211,8.321c0.748,1.287,6.229,7.323,6.229,7.323s-8.615-16.373-10.71-18.661
							c-2.098-2.291-8.377-5.765-8.377-5.765L253.933,147.477z"/>
						<path fill="#99CF81" d="M265.463,147.289c0,0-0.393,0.849,0.266,1.14c2.234,0.991,7.743,3.221,10.094,4
							c3.049,1.011,9.863,2.901,11.121,3.71c1.255,0.808,8.9,3.715,8.9,3.715s-15.164-10.703-18.078-11.796
							c-2.92-1.094-10.098-1.359-10.098-1.359L265.463,147.289z"/>
						<path fill="#469C23" d="M253.217,143.86c0,0,0.126,1.021,0.916,0.913c2.676-0.36,9.144-1.447,11.804-2.072
							c3.448-0.812,10.945-2.972,12.599-2.938c1.648,0.033,10.521-1.653,10.521-1.653s-20.483-1.284-23.857-0.629
							c-5.029,0.98-4.283,1.172-10.266,4.554L253.217,143.86z"/>
					</g>
					<path fill="#566720" d="M210.083,158.821c0.753-0.652,1.641-1.344,2.612-2.053c-0.054-0.026-0.113-0.056-0.167-0.082
						l0.319-0.031c4.488-3.254,10.745-6.849,14.382-8.852c4.475-2.464,12.049-2.938,18.129-2.727
						c6.083,0.209,23.553,0.925,30.219,0.76c6.663-0.165,9.719,0.067,9.719,0.067s-32.874,0.673-39.888,0.515
						c-7.019-0.158-15.279,1.169-17.512,2.195c-2.237,1.021-10.389,6.124-10.389,6.124s0.158,0.45-1.04,0.944
						c-0.362,0.148-0.888,0.457-1.451,0.812c10.782,5.774,25.695,17.62,32.362,23.859l-1.593-0.75
						c-6.857-6.808-21.988-17.243-32.003-22.293c-0.889,0.605-1.656,1.161-1.797,1.251c-0.201,0.128-2.529,2.27-3.977,3.605
						l0.207-1.726C208.732,159.995,209.343,159.464,210.083,158.821z"/>
				</g>
				<path fill="#566720" d="M207.418,166.828c0,0,1.062-1.9,1.479-3.223c0.413-1.323,1.203-3.207,0.963-3.578
					c-0.244-0.372-1.762,0.077-2.664,0.975c-0.9,0.899-2.589,2.067-2.44,3.696c0.074,0.808,2.113,4.782,2.187,4.416
					C207.073,168.46,207.418,166.828,207.418,166.828z"/>
			</g>
			<path fill="#77A228" d="M153.368,132.493c0,0,3.293,1.172,3.736,1.647c0.438,0.476,1.891,7.629,2.841,11.121
				c0.949,3.491,5.119,19.759,9.322,26s11.142,19.28,12.356,21.773c1.212,2.494,4.582,8.922,4.582,8.922
				s-4.926-23.297-12.852-41.611c-7.925-18.312-14.752-26.003-14.752-26.003l-1.221-0.821l4.474,0.877c0,0,8.35,3.906,13.513,7.601
				c5.168,3.695,13.263,7.952,17.677,8.338c4.411,0.386,10.926,1.904,10.926,1.904s-8.263-5.736-16.754-10.357
				c-8.492-4.62-22.313-8.64-25.497-8.849c-3.181-0.209-7.673-0.8-7.673-0.8L153.368,132.493z"/>
			<g>
				<g>
					<path fill="#469C23" d="M315.491,127.954c0.358,0.889,1.875,3.001,0.121,7.033c-2.277,5.25-5.977,15.77-7.142,18.188
						c-1.738,3.611-3.476,8.857-4.985,11.387c-1.508,2.533-2.319,3.755-2.319,3.755s0.128-8.957,0.851-13.456
						c0.724-4.501,3.987-13.456,5.8-17.844c1.814-4.389,2.778-7.334,4.504-8.555c1.727-1.219,3.048-1.642,3.048-1.642l0.114,0.118
						C315.482,126.939,315.127,127.065,315.491,127.954z"/>
					<path fill="#469C23" d="M313.92,122.887c0,0-0.409,0.499,0.014,0.956c0.419,0.457,4.275,0.966,5.217,0.86
						c0.94-0.106,7.769-0.213,10.326-0.485c2.556-0.274,3.653-0.177,4.704,0.211c1.049,0.384,2.573,1.452,2.573,1.452
						s-1.638-1.815-4.8-2.445c-3.166-0.628-5.32-2.068-8.938-2.58s-7.218,0.074-7.966,0.695
						C314.303,122.175,313.92,122.887,313.92,122.887z"/>
					<path fill="#99CF81" d="M318.479,130.112c0,0,6.37,6.116,9.649,13.108c3.281,6.992,4.489,14.285,4.529,18.965
						c0.037,4.677-0.101,5.273-0.101,5.273s0.783-4.772-4.539-14.447c-5.317-9.676-7.952-15.884-8.97-18.502
						c-1.021-2.619-1.674-4.982-1.288-4.958C318.149,129.569,318.479,130.112,318.479,130.112z"/>
					<path fill="#469C23" d="M311.833,122.509c0,0,0.607,0.618,0.125,1.078c-1.646,1.556-5.765,5.205-7.575,6.612
						c-2.35,1.826-7.716,5.582-8.564,6.678c-0.844,1.093-6.622,5.996-6.622,5.996s9.912-14.04,12.118-15.896
						c2.208-1.858,8.407-4.306,8.407-4.306L311.833,122.509z"/>
				</g>
				<g>
					<path fill="#469C23" d="M311.364,96.375c0,0-0.744,0.672-0.205,1.475c0.543,0.8,6.364,2.477,7.839,2.531
						c1.476,0.053,12.016,1.471,16.016,1.64c4.003,0.171,5.672,0.574,7.196,1.412c1.523,0.836,3.624,2.833,3.624,2.833
						s-2.096-3.177-6.819-4.875c-4.726-1.7-7.712-4.417-13.163-6.042c-5.451-1.625-11.134-1.555-12.431-0.77
						C312.123,95.367,311.364,96.375,311.364,96.375z"/>
					<path fill="#99CF81" d="M311.499,91.473c0,0,0.379,0.928,1.324,0.699c0.942-0.228,4.531-5.079,5.09-6.434
						c0.559-1.357,5.527-10.693,7.067-14.364c1.538-3.671,2.497-5.091,3.813-6.224c1.313-1.132,3.924-2.402,3.924-2.402
						s-3.724,0.86-6.957,4.677c-3.234,3.824-6.83,5.668-10.243,10.191c-6.725,8.901-6.565,3.5-5.011,11.322
						C310.804,90.42,311.499,91.473,311.499,91.473z"/>
				</g>
				<path fill="#435607" d="M308.921,95.822c3.009-2.647,18.231-9.604,20.498-11.161l-1.673,1.263
					c-1.007,1.07-15.651,7.898-18.585,10.482c-1.252,1.101-5.873,4.385-11.411,7.944l-0.89-0.285
					C302.557,100.514,307.708,96.89,308.921,95.822z"/>
				<path fill="#2B370E" d="M274.88,96.951c1.889-0.264,2.239,2.246,2.239,2.246l-2.489-0.356c0,0,4.48,1.739,8.152,1.803
					c3.674,0.062,17.025,4.146,19.237,4.349c2.213,0.203,3.94,5.713,5.671,8.476c1.732,2.763,11.362,17.346,11.564,17.604
					l8.278,13.415l-16.965-25.092l-6.854-11.443c0,0-1.243-1.553-2.122-2.324l-0.183,0.023c0,0-10.177-3.19-14.738-3.822
					c-4.563-0.63-11.884-2.018-11.884-2.018l-2.32-0.219l-0.534-0.472c0,0-3.87,2.3-7.028,4.114
					c-0.453,0.26-1.032,0.576-1.679,0.927l0.663-1.517c1.485-0.751,2.631-1.374,3.307-1.81
					C271.854,97.819,272.99,97.215,274.88,96.951z"/>
			</g>
			<g>
				<path fill="#2F2F2F" d="M239.707,205.293c4.333,5.563,28.393,22.531,31.801,25.961l-2.474-2.723
					c-1.394-2.188-24.493-18.746-28.714-24.166c-4.44-5.699-39.843-40.908-52.328-44.527c-11.416-3.307-37.87-8.461-54.764-8.643
					v1.816c16.276-0.523,43.667,3.269,54.803,7.844C198.773,165.267,235.472,199.855,239.707,205.293z M271.79,231.564
					c-0.065-0.084-0.162-0.19-0.282-0.311L271.79,231.564z"/>
				<g>
					<path fill="#469C23" d="M235.042,199.355c0,0,1.702,12.231,7.756,25.584c2.187,4.824,10.978,22.602,17.409,32.865
						c6.433,10.266,19.487,27.812,19.487,27.812s-8.747-32.152-21.044-52.735c-10.753-17.996-15.91-28.924-18.057-30.422
						C236.124,199.34,235.042,199.355,235.042,199.355z"/>
					<path fill="#469C23" d="M232.809,200.279c0.753,1.498,3.681,4.965,1.199,12.227c-2.479,7.26-7.367,26.117-9.887,32.641
						s-4.815,15.892-7.086,20.508c-2.271,4.617-3.514,6.854-3.514,6.854s-1.028-15.606-0.401-23.539
						c0.63-7.932,5.062-23.969,7.607-31.855c2.543-7.889,3.806-13.146,6.64-15.511c2.836-2.364,5.073-3.278,5.073-3.278l0.213,0.189
						C232.653,198.514,232.055,198.781,232.809,200.279z"/>
					<path fill="#99CF81" d="M229.371,191.679c0,0-0.64,0.923,0.155,1.661c0.795,0.736,7.578,1.092,9.202,0.775
						c1.624-0.314,13.488-1.438,17.897-2.264c4.41-0.828,6.337-0.812,8.215-0.283c1.878,0.527,4.683,2.174,4.683,2.174
						s-3.1-2.936-8.693-3.594c-5.595-0.657-9.549-2.866-15.914-3.258c-6.364-0.396-12.547,1.122-13.763,2.307
						C229.938,190.385,229.371,191.679,229.371,191.679z"/>
					<path fill="#469C23" d="M238.815,199.004c0,0,17.96,0.229,32.588,6.014c14.627,5.785,26.622,14.875,33.229,21.723
						c6.604,6.848,7.242,7.915,7.242,7.915s-5.527-8.118-26.922-15.047c-21.394-6.929-33.967-12.446-39.14-14.902
						s-9.445-5.033-8.843-5.542C237.574,198.657,238.815,199.004,238.815,199.004z"/>
					<path fill="#99CF81" d="M254.989,214.518c0,0,17.023,6.35,28.949,16.852c11.927,10.504,20.199,23.258,24.118,32.031
						c3.919,8.777,4.156,10.01,4.156,10.01s-2.45-9.617-20.424-23.52c-17.972-13.902-28.034-23.451-32.11-27.555
						c-4.073-4.104-7.251-8.016-6.501-8.293C253.928,213.764,254.989,214.518,254.989,214.518z"/>
					<path fill="#99CF81" d="M226.635,194.68c0,0,1.145,0.994,0.363,1.86c-2.645,2.935-9.3,9.854-12.258,12.556
						c-3.833,3.498-12.648,10.777-13.969,12.799c-1.318,2.021-10.687,11.35-10.687,11.35s15.288-25.803,18.869-29.338
						c3.582-3.536,14.027-8.652,14.027-8.652L226.635,194.68z"/>
				</g>
			</g>
			<g>
				<g>
					<path fill="#469C23" d="M158.595,267.849c0.961,0.077,3.54-0.324,6.393,3.034c3.71,4.371,11.533,12.358,13.191,14.474
						c2.477,3.158,6.426,7.045,8.031,9.518c1.607,2.472,2.346,3.737,2.346,3.737s-8.011-4.114-11.742-6.767
						c-3.733-2.656-10.341-9.56-13.482-13.131c-3.144-3.574-5.368-5.745-5.696-7.825c-0.325-2.079-0.116-3.439-0.116-3.439
						l0.158-0.048C157.677,267.401,157.63,267.773,158.595,267.849z"/>
					<path fill="#469C23" d="M153.327,266.976c0,0,0.266,0.587,0.867,0.417c0.6-0.168,2.782-3.366,3.107-4.249
						c0.324-0.883,3.281-6.996,4.178-9.387c0.896-2.393,1.474-3.325,2.291-4.083c0.817-0.761,2.461-1.638,2.461-1.638
						s-2.367,0.643-4.349,3.17c-1.98,2.532-4.241,3.803-6.318,6.787c-2.079,2.981-3.16,6.441-2.936,7.382
						C152.857,266.319,153.327,266.976,153.327,266.976z"/>
					<path fill="#99CF81" d="M159.742,264.545c0,0,5.427-8.677,12.614-14.089c7.187-5.412,15.227-8.561,20.562-9.753
						c5.335-1.19,6.054-1.183,6.054-1.183s-5.646,0.289-15.401,8.657c-9.753,8.366-16.197,12.854-18.942,14.647
						c-2.745,1.793-5.282,3.11-5.354,2.668C159.201,265.05,159.742,264.545,159.742,264.545z"/>
					<path fill="#99CF81" d="M161.872,266.159c0,0,8.358-2.924,16.125-2.713c7.765,0.212,14.877,2.402,19.111,4.457
						c4.23,2.058,4.706,2.445,4.706,2.445s-3.949-2.826-15.044-2.426c-11.096,0.399-17.865-0.038-20.681-0.303
						c-2.816-0.264-5.237-0.741-5.043-1.073C161.237,266.206,161.872,266.159,161.872,266.159z"/>
					<path fill="#469C23" d="M152.055,268.661c0,0,0.828-0.263,1.024,0.372c0.666,2.157,2.112,7.446,2.571,9.685
						c0.595,2.901,1.579,9.347,2.189,10.588c0.607,1.239,2.44,8.565,2.44,8.565s-8.218-15.082-8.903-17.871
						c-0.687-2.792-0.122-9.391-0.122-9.391L152.055,268.661z"/>
				</g>
				<g>
					<path fill="#469C23" d="M128.299,257.396c0,0,0.273,0.962,1.236,0.842c0.966-0.126,5.076-4.545,5.783-5.832
						c0.708-1.286,6.698-10.014,8.64-13.492c1.942-3.478,3.051-4.781,4.486-5.76c1.438-0.98,4.176-1.953,4.176-1.953
						s-3.802,0.441-7.443,3.878c-3.644,3.438-7.426,4.874-11.326,8.99c-3.9,4.114-6.379,9.192-6.251,10.696
						C127.729,256.271,128.299,257.396,128.299,257.396z"/>
					<path fill="#99CF81" d="M123.941,255.085c0,0,1.008,0.076,1.224-0.864c0.215-0.939-2.551-6.296-3.522-7.397
						c-0.972-1.104-7.163-9.691-9.782-12.697c-2.619-3.01-3.473-4.491-3.903-6.169c-0.433-1.672-0.409-4.561-0.409-4.561
						s-0.889,3.692,1.104,8.271c1.999,4.583,2.054,8.601,4.603,13.655c5.014,9.95,0.218,7.395,7.96,9.511
						C122.685,255.23,123.941,255.085,123.941,255.085z"/>
				</g>
				<path fill="#5F6F2C" d="M126.707,259.32c-1.039-3.855-0.503-20.488-0.893-23.195l0.391,2.048
					c0.515,1.375,0.12,17.433,1.137,21.193c0.433,1.604,1.324,7.178,2.055,13.686l-0.653,0.663
					C128.09,267.067,127.128,260.874,126.707,259.32z"/>
				<path fill="#5F6F2C" d="M112.508,290.056c0.607-1.796,3.026-0.985,3.026-0.985l-1.436,2.052c0,0,3.568-3.202,5.268-6.436
					c1.697-3.233,11.346-13.268,12.517-15.142c1.175-1.875,6.91-0.946,10.174-1.247c3.264-0.306,20.706-2.338,21.028-2.402
					l15.787-1.356l-30.19,3.852l-13.373,0.974c0,0-1.955,0.409-3.041,0.843l-0.064,0.173c0,0-7.421,7.614-10.032,11.382
					c-2.605,3.771-7.129,9.654-7.129,9.654l-1.233,1.96l-0.664,0.264c0,0,0.342,4.465,0.564,8.081c0.03,0.52,0.06,1.173,0.085,1.906
					l-1.071-1.266c-0.015-1.656-0.062-2.952-0.153-3.748C111.938,293.133,111.901,291.854,112.508,290.056z"/>
			</g>
			<g>
				<path fill="#234716" d="M122.657,325.066c0,0,12.729,4.614,20.573,12.511c7.843,7.899,16.217,26.662,22.878,40.487
					c6.659,13.826,7.245,16.846,7.245,16.846l-2.505-5.641c0,0-6.848-13.668-14.463-28.354
					c-5.347-10.312-10.66-18.865-13.322-21.844c-6.451-7.227-17.686-12.174-19.628-12.43
					C121.493,326.386,122.657,325.066,122.657,325.066z"/>
				<g>
					<path fill="#99CF81" d="M158.392,364.608c0,0-3.525,3.321-1.641,19.151c1.886,15.83,4.7,29.441,5.907,35.365
						c1.209,5.922,3.898,13.662,3.898,13.662s-0.567-23.675-1.103-38.068c-0.536-14.392-2.582-21.506-4.342-25.339
						C159.354,365.546,158.392,364.608,158.392,364.608z"/>
					<path fill="#99CF81" d="M161.14,371.904c0,0,8.37,15.51,13.066,26.574c4.696,11.065,11.819,22.988,18.602,32.707
						c6.779,9.715,9.278,11.396,9.278,11.396s-12.72-29.863-20.079-46.143c-7.359-16.278-16.742-25.525-19.058-27.9
						c-2.315-2.376-4.513-5.637-4.513-5.637L161.14,371.904z"/>
					<path fill="#99CF81" d="M157.722,361.458c0,0,4.492,3.742,6.927,5.232c2.432,1.49,20.233,12.922,24.862,17.673
						c4.631,4.751,17.272,15.417,22.65,18.643c5.375,3.229,9.781,4.887,9.781,4.887s-24.145-21.721-36.845-31.944
						c-12.7-10.223-23.618-14.087-25.086-14.642C158.542,360.754,157.722,361.458,157.722,361.458z"/>
					<path fill="#469C23" d="M159.645,368.827c0,0,3.749,23.639,8.525,36.156c4.774,12.516,10.777,26.725,10.777,26.725
						s-6.104-29.806-9.091-41.455c-2.984-11.652-9.458-22.318-9.458-22.318L159.645,368.827z"/>
					<path fill="#469C23" d="M151.86,354.384c0,0-5.951,8.586-10.011,27.51c-4.061,18.923-3.425,31.167-3.343,38.744
						c0.08,7.577,0.187,11.556,0.187,11.556s7.994-19.85,10.934-42.614c2.937-22.764,5.041-28.341,4.758-30.992
						c-0.282-2.649-1.076-5.544-1.076-5.544L151.86,354.384z"/>
					<path fill="#469C23" d="M152.205,351.097c0,0,11.213,1.65,20.417,6.101c9.206,4.45,26.513,23.023,30.243,27.027
						c3.732,4.003,5.608,6.951,5.608,6.951s-21.057-18.345-32.204-25.932c-11.146-7.588-17.839-9.098-20.397-10.333
						C153.315,353.674,152.205,351.097,152.205,351.097z"/>
				</g>
			</g>
			<g>
				<path fill="#469C23" d="M153.9,27.256c0,0,3.151,11.945,2.718,26.581c-0.157,5.288-1.411,25.054-3.388,36.98
					c-1.977,11.93-7.259,33.105-7.259,33.105s-4.336-33.025-0.928-56.716c2.981-20.714,3.524-32.77,4.929-34.971
					C152.897,27.653,153.9,27.256,153.9,27.256z"/>
				<path fill="#469C23" d="M156.321,27.259c-0.117,1.67-1.482,5.986,3.612,11.749c5.096,5.76,16.891,21.316,21.737,26.382
					c4.846,5.066,10.584,12.844,14.464,16.244c3.881,3.398,5.89,4.992,5.89,4.992s-5.076-14.805-8.719-21.893
					c-3.644-7.086-13.93-20.21-19.326-26.525c-5.396-6.318-8.59-10.693-12.122-11.798c-3.532-1.104-5.951-1.097-5.951-1.097
					l-0.123,0.256C155.783,25.569,156.438,25.588,156.321,27.259z"/>
				<path fill="#469C23" d="M156.174,18.007c0,0,0.947,0.609,0.498,1.593c-0.45,0.983-6.577,3.893-8.199,4.219
					c-1.621,0.328-13.012,3.807-17.403,4.723c-4.394,0.914-6.166,1.662-7.697,2.866c-1.531,1.202-3.483,3.79-3.483,3.79
					s1.727-3.89,6.641-6.628c4.912-2.737,7.712-6.282,13.438-9.067c5.726-2.788,12.021-3.74,13.603-3.109
					C155.151,17.028,156.174,18.007,156.174,18.007z"/>
				<path fill="#469C23" d="M150.28,28.368c0,0-16.498,7.048-27.774,17.96C111.229,57.239,103.663,70.2,100.203,79.04
					c-3.456,8.839-3.632,10.067-3.632,10.067s1.971-9.602,19.054-24.146c17.085-14.544,26.564-24.426,30.396-28.664
					c3.827-4.237,6.778-8.244,6.026-8.484C151.292,27.575,150.28,28.368,150.28,28.368z"/>
				<path fill="#469C23" d="M141.333,48.853c0,0-13.271,12.345-20.229,26.583c-6.96,14.242-9.677,29.17-9.907,38.765
					c-0.228,9.598,0.026,10.827,0.026,10.827s-1.449-9.815,9.782-29.498c11.23-19.681,16.835-32.331,19.016-37.672
					c2.178-5.341,3.601-10.164,2.802-10.134C142.023,47.752,141.333,48.853,141.333,48.853z"/>
				<path fill="#469C23" d="M159.862,19.736c0,0-0.675,1.354,0.38,1.857c3.577,1.703,12.396,5.56,16.172,6.929
					c4.889,1.772,15.843,5.139,17.844,6.503c1.996,1.365,14.251,6.415,14.251,6.415s-24.082-18.011-28.756-19.913
					c-4.675-1.902-16.296-2.652-16.296-2.652L159.862,19.736z"/>
			</g>
			<path fill="#2B370E" d="M132.411,64.8c0.559-2.529,16.572-25.926,18.674-32.451c1.187-3.681,7.824-18.354,15.342-32.35h1.846
				c-7.799,14.244-15.133,29.418-16.291,33.014c-2.16,6.698-18.936,30.806-20.957,35.185L132.411,64.8z"/>
			<g>
				<path fill="#7EBA65" d="M204.72,39.485c0,0,4.455,27.483,5.728,46.437s5.728,40.436,10.819,58.442
					c5.091,18.005,7.952,21.796,7.952,21.796s-3.501-51.176-6.045-79.291s-11.771-46.753-13.999-51.491
					c-2.227-4.738-3.818-10.741-3.818-10.741L204.72,39.485z"/>
				<path fill="#469C23" d="M205.039,22.111c0,0,4.772,7.898,7.636,11.373c2.864,3.475,23.544,29.694,27.998,39.171
					c4.455,9.477,17.817,31.906,24.182,39.487c6.362,7.582,12.089,12.32,12.089,12.32s-24.816-44.857-38.497-66.653
					c-13.681-21.797-27.999-33.169-29.907-34.749C206.629,21.479,205.039,22.111,205.039,22.111z"/>
				<path fill="#7EBA65" d="M202.175,3.79c0,0,15.908,8.213,27.361,19.585c11.455,11.372,27.683,48.017,31.181,55.914
					c3.501,7.897,4.773,13.268,4.773,13.268s-21.954-38.223-34.681-55.282c-12.727-17.058-21.952-22.744-25.135-25.903
					C202.494,8.212,202.175,3.79,202.175,3.79z"/>
				<path fill="#566720" d="M202.094,0.035c3.204,15.942,5.03,35.362,6.854,51.209c2.772,24.089,2.078,28.908,2.078,28.908
					l-0.812-9.72c0,0-3.137-23.952-6.893-49.817c-1.085-7.479-2.317-14.492-3.561-20.58H202.094z"/>
				<path fill="#7EBA65" d="M196.571,39.31c4.111-10.454,7.832-12.144,7.832-12.144s0.953,1.896,1.59,8.53
					c0.636,6.633,0,18.322-6.682,40.119c-0.849,2.765-1.772,5.754-2.74,8.865V39.31z"/>
				<path fill="#7EBA65" d="M196.571,11.409c2.147-1.977,3.378-2.881,3.378-2.881l2.862-1.264c0,0-0.316,4.739-1.272,8.845
					c-0.436,1.873-1.933,4.411-4.968,9.692V11.409z"/>
			</g>
			<g>
				<g>
					<path fill="#469C23" d="M200.379,535.68c0.495,0.271,1.966,0.674,2.671,3.145c0.916,3.215,3.146,9.34,3.518,10.863
						c0.554,2.274,1.713,5.288,1.97,6.989c0.257,1.7,0.343,2.552,0.343,2.552s-3.271-4.106-4.614-6.411
						c-1.344-2.307-3.189-7.564-3.996-10.217c-0.809-2.656-1.467-4.345-1.137-5.531c0.329-1.186,0.771-1.86,0.771-1.86l0.096,0.013
						C200,535.222,199.886,535.409,200.379,535.68z"/>
					<path fill="#469C23" d="M197.787,533.955c0,0-0.001,0.377,0.359,0.429c0.361,0.055,2.299-1.127,2.686-1.519
						c0.388-0.394,3.444-2.942,4.503-4.003c1.058-1.06,1.592-1.418,2.211-1.627c0.619-0.21,1.707-0.284,1.707-0.284
						s-1.416-0.224-3.084,0.649c-1.67,0.875-3.183,1.011-5.011,2.104c-1.832,1.091-3.246,2.676-3.355,3.23
						C197.695,533.493,197.787,533.955,197.787,533.955z"/>
					<path fill="#99CF81" d="M201.794,534.194c0,0,4.994-3.324,10.135-4.489c5.14-1.165,10.187-0.92,13.318-0.28
						c3.131,0.642,3.512,0.818,3.512,0.818s-3.078-1.196-10.303,0.93c-7.226,2.124-11.746,2.975-13.643,3.273
						c-1.897,0.299-3.567,0.394-3.5,0.142C201.382,534.334,201.794,534.194,201.794,534.194z"/>
					<path fill="#99CF81" d="M202.536,535.563c0,0,5.161,0.44,9.248,2.409c4.084,1.969,7.341,4.836,9.098,6.942
						c1.755,2.107,1.915,2.427,1.915,2.427s-1.419-2.448-7.426-4.888c-6.008-2.44-9.507-4.291-10.942-5.105
						c-1.438-0.813-2.609-1.646-2.426-1.776C202.186,535.437,202.536,535.563,202.536,535.563z"/>
					<path fill="#469C23" d="M196.7,534.549c0,0,0.506,0.058,0.455,0.442c-0.167,1.309-0.68,4.472-0.979,5.774
						c-0.387,1.688-1.424,5.355-1.402,6.164c0.024,0.804-0.776,5.145-0.776,5.145s-0.72-9.998-0.409-11.647
						c0.312-1.651,2.213-5.031,2.213-5.031L196.7,534.549z"/>
				</g>
				<g>
					<path fill="#469C23" d="M186.779,522.87c0,0-0.089,0.578,0.452,0.744c0.546,0.163,3.808-1.208,4.495-1.725
						c0.69-0.516,5.996-3.732,7.874-5.121c1.877-1.388,2.784-1.816,3.786-1.996c1.003-0.178,2.699-0.041,2.699-0.041
						s-2.133-0.674-4.907,0.286c-2.772,0.96-5.137,0.821-8.213,2.081c-3.074,1.259-5.626,3.371-5.923,4.202
						C186.747,522.134,186.779,522.87,186.779,522.87z"/>
					<path fill="#99CF81" d="M185.017,520.598c0,0,0.52,0.281,0.862-0.169c0.342-0.448,0.168-3.963-0.083-4.782
						c-0.25-0.819-1.465-6.875-2.131-9.102c-0.666-2.229-0.762-3.222-0.583-4.219c0.175-0.994,0.888-2.527,0.888-2.527
						s-1.37,1.755-1.417,4.669c-0.049,2.919-0.993,5.073-0.861,8.374c0.259,6.498-1.676,3.991,1.934,6.969
						C184.312,520.373,185.017,520.598,185.017,520.598z"/>
				</g>
				<path fill="#5F6F2C" d="M185.463,523.514c0.383-2.302,4.701-11.033,5.149-12.568l-0.287,1.185
					c-0.061,0.856-4.166,9.314-4.535,11.56c-0.158,0.959-1.035,4.141-2.224,7.782l-0.51,0.196
					C184.32,527.972,185.311,524.442,185.463,523.514z"/>
				<path fill="#5F6F2C" d="M170.446,536.492c0.759-0.812,1.852,0.198,1.852,0.198l-1.264,0.751c0,0,2.679-0.854,4.367-2.17
					s9.262-4.354,10.34-5.072c1.08-0.718,3.909,1.146,5.721,1.768c1.812,0.616,11.597,3.704,11.784,3.748l8.739,3.05l-17.018-5.165
					l-7.358-2.678c0,0-1.141-0.249-1.825-0.278l-0.075,0.077c0,0-5.8,2.283-8.105,3.665c-2.302,1.386-6.138,3.438-6.138,3.438
					l-1.133,0.749l-0.416-0.019c0,0-0.901,2.461-1.66,4.439c-0.11,0.284-0.253,0.64-0.417,1.036l-0.264-0.931
					c0.395-0.886,0.684-1.587,0.828-2.033C169.396,537.994,169.688,537.305,170.446,536.492z"/>
			</g>
		</g>
	</g>
</g>
</svg>
